STARTFONT 2.1
FONT -Adobe-New Century Schoolbook-Bold-R-Normal--10-100-75-75-P-66-ISO8859-2
SIZE 10 75 75
FONTBOUNDINGBOX 16 13 -1 -2
COMMENT $XConsortium: ncenB10.bdf,v 1.13 95/01/26 18:03:19 gildea Exp $
COMMENT 
COMMENT +
COMMENT  Copyright 1984-1989, 1994 Adobe Systems Incorporated.
COMMENT  Copyright 1988, 1994 Digital Equipment Corporation.
COMMENT
COMMENT  Adobe is a trademark of Adobe Systems Incorporated which may be
COMMENT  registered in certain jurisdictions.
COMMENT  Permission to use these trademarks is hereby granted only in
COMMENT  association with the images described in this file.
COMMENT
COMMENT  Permission to use, copy, modify, distribute and sell this software
COMMENT  and its documentation for any purpose and without fee is hereby
COMMENT  granted, provided that the above copyright notices appear in all
COMMENT  copies and that both those copyright notices and this permission
COMMENT  notice appear in supporting documentation, and that the names of
COMMENT  Adobe Systems and Digital Equipment Corporation not be used in
COMMENT  advertising or publicity pertaining to distribution of the software
COMMENT  without specific, written prior permission.  Adobe Systems and
COMMENT  Digital Equipment Corporation make no representations about the
COMMENT  suitability of this software for any purpose.  It is provided "as
COMMENT  is" without express or implied warranty.
COMMENT -
COMMENT  
COMMENT  Translation to ISO8859-2 by Cub Soft;  Petr.Kolar@vslib.cz
COMMENT  
STARTPROPERTIES 28
FOUNDRY "Adobe"
FAMILY_NAME "New Century Schoolbook"
WEIGHT_NAME "Bold"
SLANT "R"
SETWIDTH_NAME "Normal"
ADD_STYLE_NAME ""
PIXEL_SIZE 10
POINT_SIZE 100
RESOLUTION_X 75
RESOLUTION_Y 75
SPACING "P"
AVERAGE_WIDTH 66
CHARSET_REGISTRY "ISO8859"
CHARSET_ENCODING "2"
CAP_HEIGHT 8
X_HEIGHT 5
FONT_ASCENT 10
FONT_DESCENT 2
FACE_NAME "New Century Schoolbook Bold"

STARTCHAR space
ENCODING 32
SWIDTH 287 0
DWIDTH 2 0
BBX 1 1 0 0
BITMAP
00
ENDCHAR
STARTCHAR exclam
ENCODING 33
SWIDTH 296 0
DWIDTH 3 0
BBX 2 8 0 0
BITMAP
c0
c0
c0
80
80
00
c0
c0
ENDCHAR
STARTCHAR quotedbl
ENCODING 34
SWIDTH 333 0
DWIDTH 6 0
BBX 3 3 1 5
BITMAP
a0
a0
a0
ENDCHAR
STARTCHAR numbersign
ENCODING 35
SWIDTH 574 0
DWIDTH 8 0
BBX 7 8 0 0
BITMAP
14
14
7e
28
28
fc
50
50
ENDCHAR
STARTCHAR dollar
ENCODING 36
SWIDTH 574 0
DWIDTH 6 0
BBX 5 10 0 -1
BITMAP
20
78
a8
a0
f0
78
28
a8
f0
20
ENDCHAR
STARTCHAR percent
ENCODING 37
SWIDTH 833 0
DWIDTH 11 0
BBX 10 8 0 0
BITMAP
6600
da00
d400
d580
6b40
0b40
1340
1180
ENDCHAR
STARTCHAR ampersand
ENCODING 38
SWIDTH 852 0
DWIDTH 9 0
BBX 8 8 0 0
BITMAP
30
68
68
36
5c
cc
cf
76
ENDCHAR
STARTCHAR apostrophe
ENCODING 39
SWIDTH 241 0
DWIDTH 3 0
BBX 2 4 0 4
BITMAP
c0
c0
40
80
ENDCHAR
STARTCHAR parenleft
ENCODING 40
SWIDTH 389 0
DWIDTH 5 0
BBX 4 10 0 -2
BITMAP
10
20
60
c0
c0
c0
c0
60
20
10
ENDCHAR
STARTCHAR parenright
ENCODING 41
SWIDTH 389 0
DWIDTH 5 0
BBX 4 10 0 -2
BITMAP
80
40
60
30
30
30
30
60
40
80
ENDCHAR
STARTCHAR asterisk
ENCODING 42
SWIDTH 500 0
DWIDTH 6 0
BBX 5 5 0 3
BITMAP
20
a8
70
a8
20
ENDCHAR
STARTCHAR plus
ENCODING 43
SWIDTH 606 0
DWIDTH 6 0
BBX 5 5 0 1
BITMAP
20
20
f8
20
20
ENDCHAR
STARTCHAR comma
ENCODING 44
SWIDTH 278 0
DWIDTH 3 0
BBX 2 4 0 -2
BITMAP
c0
c0
40
80
ENDCHAR
STARTCHAR minus
ENCODING 45
SWIDTH 606 0
DWIDTH 6 0
BBX 5 1 0 3
BITMAP
f8
ENDCHAR
STARTCHAR period
ENCODING 46
SWIDTH 278 0
DWIDTH 3 0
BBX 2 2 0 0
BITMAP
c0
c0
ENDCHAR
STARTCHAR slash
ENCODING 47
SWIDTH 278 0
DWIDTH 5 0
BBX 4 8 0 0
BITMAP
10
10
30
20
60
40
c0
80
ENDCHAR
STARTCHAR zero
ENCODING 48
SWIDTH 574 0
DWIDTH 6 0
BBX 5 8 0 0
BITMAP
70
d8
d8
d8
d8
d8
d8
70
ENDCHAR
STARTCHAR one
ENCODING 49
SWIDTH 574 0
DWIDTH 6 0
BBX 4 8 0 0
BITMAP
60
e0
60
60
60
60
60
f0
ENDCHAR
STARTCHAR two
ENCODING 50
SWIDTH 574 0
DWIDTH 6 0
BBX 5 8 0 0
BITMAP
70
d8
d8
18
30
40
f8
f8
ENDCHAR
STARTCHAR three
ENCODING 51
SWIDTH 574 0
DWIDTH 6 0
BBX 5 8 0 0
BITMAP
70
d8
d8
30
18
d8
d8
70
ENDCHAR
STARTCHAR four
ENCODING 52
SWIDTH 574 0
DWIDTH 6 0
BBX 6 8 0 0
BITMAP
38
38
58
58
98
fc
18
38
ENDCHAR
STARTCHAR five
ENCODING 53
SWIDTH 574 0
DWIDTH 6 0
BBX 5 8 0 0
BITMAP
f8
f0
80
f0
18
d8
d8
70
ENDCHAR
STARTCHAR six
ENCODING 54
SWIDTH 574 0
DWIDTH 6 0
BBX 5 8 0 0
BITMAP
70
d8
c0
f0
d8
d8
d8
70
ENDCHAR
STARTCHAR seven
ENCODING 55
SWIDTH 574 0
DWIDTH 6 0
BBX 4 8 0 0
BITMAP
f0
f0
10
20
20
60
60
60
ENDCHAR
STARTCHAR eight
ENCODING 56
SWIDTH 574 0
DWIDTH 6 0
BBX 5 8 0 0
BITMAP
70
d8
d8
70
d8
d8
d8
70
ENDCHAR
STARTCHAR nine
ENCODING 57
SWIDTH 574 0
DWIDTH 6 0
BBX 5 8 0 0
BITMAP
70
d8
d8
d8
78
18
d8
70
ENDCHAR
STARTCHAR colon
ENCODING 58
SWIDTH 278 0
DWIDTH 3 0
BBX 2 5 0 0
BITMAP
c0
c0
00
c0
c0
ENDCHAR
STARTCHAR semicolon
ENCODING 59
SWIDTH 278 0
DWIDTH 3 0
BBX 2 7 0 -2
BITMAP
c0
c0
00
c0
c0
40
80
ENDCHAR
STARTCHAR less
ENCODING 60
SWIDTH 606 0
DWIDTH 7 0
BBX 6 5 0 1
BITMAP
0c
38
e0
38
0c
ENDCHAR
STARTCHAR equal
ENCODING 61
SWIDTH 606 0
DWIDTH 6 0
BBX 5 3 0 2
BITMAP
f8
00
f8
ENDCHAR
STARTCHAR greater
ENCODING 62
SWIDTH 606 0
DWIDTH 7 0
BBX 6 5 0 1
BITMAP
c0
70
1c
70
c0
ENDCHAR
STARTCHAR question
ENCODING 63
SWIDTH 500 0
DWIDTH 6 0
BBX 5 8 0 0
BITMAP
70
d8
18
30
40
00
60
60
ENDCHAR
STARTCHAR at
ENCODING 64
SWIDTH 747 0
DWIDTH 10 0
BBX 9 8 0 0
BITMAP
3e00
4100
8e80
b680
b680
9b00
4080
3f00
ENDCHAR
STARTCHAR A
ENCODING 65
SWIDTH 759 0
DWIDTH 8 0
BBX 9 8 -1 0
BITMAP
0800
1c00
1c00
2600
2600
7f00
4300
e780
ENDCHAR
STARTCHAR B
ENCODING 66
SWIDTH 778 0
DWIDTH 8 0
BBX 7 8 0 0
BITMAP
fc
66
66
7c
66
66
66
fc
ENDCHAR
STARTCHAR C
ENCODING 67
SWIDTH 778 0
DWIDTH 8 0
BBX 7 8 0 0
BITMAP
3a
46
c2
c0
c0
c2
42
3c
ENDCHAR
STARTCHAR D
ENCODING 68
SWIDTH 833 0
DWIDTH 9 0
BBX 8 8 0 0
BITMAP
fc
62
63
63
63
63
62
fc
ENDCHAR
STARTCHAR E
ENCODING 69
SWIDTH 759 0
DWIDTH 7 0
BBX 6 8 0 0
BITMAP
fc
64
68
78
68
64
64
fc
ENDCHAR
STARTCHAR F
ENCODING 70
SWIDTH 722 0
DWIDTH 7 0
BBX 6 8 0 0
BITMAP
fc
64
68
78
68
60
60
f0
ENDCHAR
STARTCHAR G
ENCODING 71
SWIDTH 833 0
DWIDTH 8 0
BBX 7 8 0 0
BITMAP
3a
46
c2
c0
ce
c6
46
3a
ENDCHAR
STARTCHAR H
ENCODING 72
SWIDTH 870 0
DWIDTH 10 0
BBX 9 8 0 0
BITMAP
f780
6300
6300
7f00
6300
6300
6300
f780
ENDCHAR
STARTCHAR I
ENCODING 73
SWIDTH 444 0
DWIDTH 5 0
BBX 4 8 0 0
BITMAP
f0
60
60
60
60
60
60
f0
ENDCHAR
STARTCHAR J
ENCODING 74
SWIDTH 648 0
DWIDTH 7 0
BBX 6 8 0 0
BITMAP
3c
18
18
18
d8
d8
98
70
ENDCHAR
STARTCHAR K
ENCODING 75
SWIDTH 815 0
DWIDTH 9 0
BBX 9 8 0 0
BITMAP
f300
6200
6400
6c00
7e00
6600
6700
f380
ENDCHAR
STARTCHAR L
ENCODING 76
SWIDTH 722 0
DWIDTH 7 0
BBX 6 8 0 0
BITMAP
f0
60
60
60
60
64
64
fc
ENDCHAR
STARTCHAR M
ENCODING 77
SWIDTH 981 0
DWIDTH 12 0
BBX 11 8 0 0
BITMAP
f1e0
71c0
5ac0
5ac0
5ac0
4cc0
4cc0
ede0
ENDCHAR
STARTCHAR N
ENCODING 78
SWIDTH 833 0
DWIDTH 9 0
BBX 8 8 0 0
BITMAP
c7
62
72
7a
5e
4e
46
e2
ENDCHAR
STARTCHAR O
ENCODING 79
SWIDTH 833 0
DWIDTH 8 0
BBX 7 8 0 0
BITMAP
38
44
c6
c6
c6
c6
44
38
ENDCHAR
STARTCHAR P
ENCODING 80
SWIDTH 759 0
DWIDTH 8 0
BBX 7 8 0 0
BITMAP
fc
66
66
66
7c
60
60
f0
ENDCHAR
STARTCHAR Q
ENCODING 81
SWIDTH 833 0
DWIDTH 8 0
BBX 8 9 0 -1
BITMAP
38
44
c6
c6
c6
f6
6c
3d
06
ENDCHAR
STARTCHAR R
ENCODING 82
SWIDTH 815 0
DWIDTH 9 0
BBX 8 8 0 0
BITMAP
fc
66
66
64
7c
66
66
f7
ENDCHAR
STARTCHAR S
ENCODING 83
SWIDTH 667 0
DWIDTH 7 0
BBX 6 8 0 0
BITMAP
74
cc
c4
f0
3c
8c
cc
b8
ENDCHAR
STARTCHAR T
ENCODING 84
SWIDTH 722 0
DWIDTH 7 0
BBX 6 8 0 0
BITMAP
fc
b4
b4
30
30
30
30
78
ENDCHAR
STARTCHAR U
ENCODING 85
SWIDTH 833 0
DWIDTH 9 0
BBX 8 8 0 0
BITMAP
f7
62
62
62
62
62
62
3c
ENDCHAR
STARTCHAR V
ENCODING 86
SWIDTH 759 0
DWIDTH 9 0
BBX 8 8 0 0
BITMAP
f7
62
62
34
34
34
18
18
ENDCHAR
STARTCHAR W
ENCODING 87
SWIDTH 981 0
DWIDTH 12 0
BBX 11 8 0 0
BITMAP
f6e0
6640
6640
6b40
6b40
3b80
3180
3180
ENDCHAR
STARTCHAR X
ENCODING 88
SWIDTH 722 0
DWIDTH 9 0
BBX 8 8 0 0
BITMAP
f7
62
74
38
1c
2e
46
ef
ENDCHAR
STARTCHAR Y
ENCODING 89
SWIDTH 722 0
DWIDTH 9 0
BBX 8 8 0 0
BITMAP
f7
62
34
34
18
18
18
3c
ENDCHAR
STARTCHAR Z
ENCODING 90
SWIDTH 667 0
DWIDTH 7 0
BBX 6 8 0 0
BITMAP
fc
9c
18
30
30
60
e4
fc
ENDCHAR
STARTCHAR bracketleft
ENCODING 91
SWIDTH 389 0
DWIDTH 4 0
BBX 3 10 0 -2
BITMAP
e0
c0
c0
c0
c0
c0
c0
c0
c0
e0
ENDCHAR
STARTCHAR backslash
ENCODING 92
SWIDTH 606 0
DWIDTH 5 0
BBX 4 8 0 0
BITMAP
80
80
c0
40
60
20
30
10
ENDCHAR
STARTCHAR bracketright
ENCODING 93
SWIDTH 389 0
DWIDTH 4 0
BBX 3 10 0 -2
BITMAP
e0
60
60
60
60
60
60
60
60
e0
ENDCHAR
STARTCHAR asciicircum
ENCODING 94
SWIDTH 606 0
DWIDTH 6 0
BBX 5 6 0 2
BITMAP
20
20
70
50
d8
88
ENDCHAR
STARTCHAR underscore
ENCODING 95
SWIDTH 500 0
DWIDTH 5 0
BBX 5 1 0 -2
BITMAP
f8
ENDCHAR
STARTCHAR grave
ENCODING 96
SWIDTH 333 0
DWIDTH 4 0
BBX 3 2 0 6
BITMAP
c0
60
ENDCHAR
STARTCHAR a
ENCODING 97
SWIDTH 611 0
DWIDTH 5 0
BBX 4 5 0 0
BITMAP
e0
30
70
b0
f0
ENDCHAR
STARTCHAR b
ENCODING 98
SWIDTH 648 0
DWIDTH 7 0
BBX 7 8 -1 0
BITMAP
e0
60
60
6c
76
66
66
5c
ENDCHAR
STARTCHAR c
ENCODING 99
SWIDTH 556 0
DWIDTH 6 0
BBX 5 5 0 0
BITMAP
70
c8
c0
c8
70
ENDCHAR
STARTCHAR d
ENCODING 100
SWIDTH 667 0
DWIDTH 7 0
BBX 6 8 0 0
BITMAP
1c
0c
0c
7c
cc
cc
dc
6c
ENDCHAR
STARTCHAR e
ENCODING 101
SWIDTH 574 0
DWIDTH 6 0
BBX 5 5 0 0
BITMAP
70
d8
f8
c0
78
ENDCHAR
STARTCHAR f
ENCODING 102
SWIDTH 389 0
DWIDTH 5 0
BBX 5 8 0 0
BITMAP
38
68
60
f0
60
60
60
f0
ENDCHAR
STARTCHAR g
ENCODING 103
SWIDTH 611 0
DWIDTH 6 0
BBX 6 8 0 -2
BITMAP
08
70
d8
d8
70
7c
8c
f8
ENDCHAR
STARTCHAR h
ENCODING 104
SWIDTH 685 0
DWIDTH 7 0
BBX 7 8 -1 0
BITMAP
e0
60
60
6c
76
66
66
66
ENDCHAR
STARTCHAR i
ENCODING 105
SWIDTH 370 0
DWIDTH 5 0
BBX 4 8 0 0
BITMAP
60
60
00
e0
60
60
60
f0
ENDCHAR
STARTCHAR j
ENCODING 106
SWIDTH 352 0
DWIDTH 5 0
BBX 4 10 -1 -2
BITMAP
30
30
00
70
30
30
30
30
b0
e0
ENDCHAR
STARTCHAR k
ENCODING 107
SWIDTH 667 0
DWIDTH 6 0
BBX 7 8 -1 0
BITMAP
e0
60
60
6c
78
78
6c
6e
ENDCHAR
STARTCHAR l
ENCODING 108
SWIDTH 352 0
DWIDTH 5 0
BBX 4 8 0 0
BITMAP
e0
60
60
60
60
60
60
f0
ENDCHAR
STARTCHAR m
ENCODING 109
SWIDTH 963 0
DWIDTH 11 0
BBX 10 5 0 0
BITMAP
d980
eec0
ccc0
ccc0
ccc0
ENDCHAR
STARTCHAR n
ENCODING 110
SWIDTH 685 0
DWIDTH 7 0
BBX 6 5 0 0
BITMAP
d8
ec
cc
cc
cc
ENDCHAR
STARTCHAR o
ENCODING 111
SWIDTH 611 0
DWIDTH 7 0
BBX 6 5 0 0
BITMAP
78
cc
cc
cc
78
ENDCHAR
STARTCHAR p
ENCODING 112
SWIDTH 667 0
DWIDTH 7 0
BBX 7 7 -1 -2
BITMAP
6c
76
66
66
7c
60
f0
ENDCHAR
STARTCHAR q
ENCODING 113
SWIDTH 648 0
DWIDTH 7 0
BBX 7 7 0 -2
BITMAP
7c
cc
cc
dc
6c
0c
1e
ENDCHAR
STARTCHAR r
ENCODING 114
SWIDTH 519 0
DWIDTH 5 0
BBX 4 5 0 0
BITMAP
d0
f0
c0
c0
c0
ENDCHAR
STARTCHAR s
ENCODING 115
SWIDTH 500 0
DWIDTH 5 0
BBX 4 5 0 0
BITMAP
70
c0
f0
30
e0
ENDCHAR
STARTCHAR t
ENCODING 116
SWIDTH 426 0
DWIDTH 4 0
BBX 4 7 -1 0
BITMAP
20
60
f0
60
60
60
30
ENDCHAR
STARTCHAR u
ENCODING 117
SWIDTH 685 0
DWIDTH 7 0
BBX 6 5 0 0
BITMAP
cc
cc
cc
dc
6c
ENDCHAR
STARTCHAR v
ENCODING 118
SWIDTH 611 0
DWIDTH 7 0
BBX 6 5 0 0
BITMAP
ec
68
68
30
30
ENDCHAR
STARTCHAR w
ENCODING 119
SWIDTH 889 0
DWIDTH 10 0
BBX 9 5 0 0
BITMAP
ed80
6d00
6d00
3600
3600
ENDCHAR
STARTCHAR x
ENCODING 120
SWIDTH 611 0
DWIDTH 7 0
BBX 6 5 0 0
BITMAP
ec
68
30
58
dc
ENDCHAR
STARTCHAR y
ENCODING 121
SWIDTH 611 0
DWIDTH 7 0
BBX 6 7 0 -2
BITMAP
ec
68
68
30
30
e0
c0
ENDCHAR
STARTCHAR z
ENCODING 122
SWIDTH 537 0
DWIDTH 6 0
BBX 5 5 0 0
BITMAP
f8
b0
60
c8
f8
ENDCHAR
STARTCHAR braceleft
ENCODING 123
SWIDTH 389 0
DWIDTH 5 0
BBX 4 10 0 -2
BITMAP
30
60
60
60
c0
60
60
60
60
30
ENDCHAR
STARTCHAR bar
ENCODING 124
SWIDTH 606 0
DWIDTH 6 0
BBX 1 8 2 0
BITMAP
80
80
80
80
80
80
80
80
ENDCHAR
STARTCHAR braceright
ENCODING 125
SWIDTH 389 0
DWIDTH 5 0
BBX 4 10 0 -2
BITMAP
c0
60
60
60
30
60
60
60
60
c0
ENDCHAR
STARTCHAR asciitilde
ENCODING 126
SWIDTH 606 0
DWIDTH 7 0
BBX 6 2 0 3
BITMAP
74
b8
ENDCHAR
STARTCHAR nobreakspace
ENCODING 160
SWIDTH 287 0
DWIDTH 2 0
BBX 1 1 0 0
BITMAP
00
ENDCHAR
STARTCHAR Aogonek
ENCODING 161
SWIDTH 759 0
DWIDTH 8 0
BBX 9 11 -1 -3
BITMAP
0800
1c00
1c00
2600
2600
7f00
4300
e780
0400
0800
0c00
ENDCHAR
STARTCHAR breve
ENCODING 162
SWIDTH 333 0
DWIDTH 5 0
BBX 4 2 0 6
BITMAP
90
60
ENDCHAR
STARTCHAR Lstroke
ENCODING 163
SWIDTH 722 0
DWIDTH 7 0
BBX 6 8 0 0
BITMAP
f0
60
60
70
e0
64
64
fc
ENDCHAR
STARTCHAR currency
ENCODING 164
SWIDTH 606 0
DWIDTH 8 0
BBX 7 5 0 1
BITMAP
ba
6c
6c
6c
ba
ENDCHAR
STARTCHAR Lcaron
ENCODING 165
SWIDTH 768 0
DWIDTH 8 0
BBX 7 9 0 0
BITMAP
06
f6
62
64
60
60
64
64
fc
ENDCHAR
STARTCHAR Sacute
ENCODING 166
SWIDTH 667 0
DWIDTH 7 0
BBX 6 11 0 0
BITMAP
18
30
00
74
cc
c4
f0
3c
8c
cc
b8
ENDCHAR
STARTCHAR section
ENCODING 167
SWIDTH 500 0
DWIDTH 5 0
BBX 4 10 0 -2
BITMAP
70
90
c0
60
b0
d0
60
30
90
e0
ENDCHAR
STARTCHAR diaeresis
ENCODING 168
SWIDTH 333 0
DWIDTH 4 0
BBX 3 2 0 6
BITMAP
a0
a0
ENDCHAR
STARTCHAR Scaron
ENCODING 169
SWIDTH 667 0
DWIDTH 7 0
BBX 6 12 0 0
BITMAP
d8
70
20
00
74
cc
c4
f0
3c
8c
cc
b8
ENDCHAR
STARTCHAR Scedilla
ENCODING 170
SWIDTH 667 0
DWIDTH 7 0
BBX 6 11 0 -3
BITMAP
74
cc
c4
f0
3c
8c
cc
b8
20
10
30
ENDCHAR
STARTCHAR Tcaron
ENCODING 171
SWIDTH 722 0
DWIDTH 7 0
BBX 6 12 0 0
BITMAP
d8
70
20
00
fc
b4
b4
30
30
30
30
78
ENDCHAR
STARTCHAR Zacute
ENCODING 172
SWIDTH 667 0
DWIDTH 7 0
BBX 6 11 0 0
BITMAP
18
30
00
fc
9c
18
30
30
60
e4
fc
ENDCHAR
STARTCHAR hyphen
ENCODING 173
SWIDTH 333 0
DWIDTH 4 0
BBX 3 1 0 3
BITMAP
e0
ENDCHAR
STARTCHAR Zcaron
ENCODING 174
SWIDTH 667 0
DWIDTH 7 0
BBX 6 12 0 0
BITMAP
d8
70
20
00
fc
9c
18
30
30
60
e4
fc
ENDCHAR
STARTCHAR Zabovedot
ENCODING 175
SWIDTH 667 0
DWIDTH 7 0
BBX 6 11 0 0
BITMAP
20
20
00
fc
9c
18
30
30
60
e4
fc
ENDCHAR
STARTCHAR degree
ENCODING 176
SWIDTH 400 0
DWIDTH 4 0
BBX 3 4 0 4
BITMAP
40
a0
a0
40
ENDCHAR
STARTCHAR aogonek
ENCODING 177
SWIDTH 611 0
DWIDTH 5 0
BBX 4 8 0 -3
BITMAP
e0
30
70
b0
f0
20
40
60
ENDCHAR
STARTCHAR ogonek
ENCODING 178
SWIDTH 333 0
DWIDTH 3 0
BBX 2 3 0 -2
BITMAP
40
80
c0
ENDCHAR
STARTCHAR lstroke
ENCODING 179
SWIDTH 352 0
DWIDTH 5 0
BBX 4 8 0 0
BITMAP
e0
60
70
60
e0
60
60
f0
ENDCHAR
STARTCHAR acute
ENCODING 180
SWIDTH 333 0
DWIDTH 4 0
BBX 3 2 0 6
BITMAP
60
c0
ENDCHAR
STARTCHAR lcaron
ENCODING 181
SWIDTH 672 0
DWIDTH 7 0
BBX 6 9 0 0
BITMAP
0c
ec
64
68
60
60
60
60
f0
ENDCHAR
STARTCHAR sacute
ENCODING 182
SWIDTH 500 0
DWIDTH 5 0
BBX 4 8 0 0
BITMAP
30
60
00
70
c0
f0
30
e0
ENDCHAR
STARTCHAR caron
ENCODING 183
SWIDTH 333 0
DWIDTH 6 0
BBX 5 3 0 5
BITMAP
d8
70
20
ENDCHAR
STARTCHAR cedilla
ENCODING 184
SWIDTH 333 0
DWIDTH 4 0
BBX 2 3 1 -2
BITMAP
80
40
c0
ENDCHAR
STARTCHAR scaron
ENCODING 185
SWIDTH 500 0
DWIDTH 5 0
BBX 5 9 -1 0
BITMAP
d8
70
20
00
38
60
78
18
70
ENDCHAR
STARTCHAR scedilla
ENCODING 186
SWIDTH 500 0
DWIDTH 5 0
BBX 4 8 0 -3
BITMAP
70
c0
f0
30
e0
40
20
60
ENDCHAR
STARTCHAR tcaron
ENCODING 187
SWIDTH 576 0
DWIDTH 6 0
BBX 6 10 -1 0
BITMAP
0c
0c
04
28
60
f0
60
60
60
30
ENDCHAR
STARTCHAR zacute
ENCODING 188
SWIDTH 537 0
DWIDTH 6 0
BBX 5 8 0 0
BITMAP
18
30
00
f8
b0
60
c8
f8
ENDCHAR
STARTCHAR doubleacute
ENCODING 189
SWIDTH 333 0
DWIDTH 8 0
BBX 7 2 0 6
BITMAP
66
cc
ENDCHAR
STARTCHAR zcaron
ENCODING 190
SWIDTH 537 0
DWIDTH 6 0
BBX 5 9 0 0
BITMAP
d8
70
20
00
f8
b0
60
c8
f8
ENDCHAR
STARTCHAR zabovedot
ENCODING 191
SWIDTH 537 0
DWIDTH 6 0
BBX 5 8 0 0
BITMAP
20
20
00
f8
b0
60
c8
f8
ENDCHAR
STARTCHAR Racute
ENCODING 192
SWIDTH 815 0
DWIDTH 9 0
BBX 8 11 0 0
BITMAP
0c
18
00
fc
66
66
64
7c
66
66
f7
ENDCHAR
STARTCHAR Aacute
ENCODING 193
SWIDTH 759 0
DWIDTH 8 0
BBX 9 11 -1 0
BITMAP
0600
0c00
0000
0800
1c00
1c00
2600
2600
7f00
4300
e780
ENDCHAR
STARTCHAR Acircumflex
ENCODING 194
SWIDTH 759 0
DWIDTH 8 0
BBX 9 11 -1 0
BITMAP
1c00
3600
0000
0800
1c00
1c00
2600
2600
7f00
4300
e780
ENDCHAR
STARTCHAR Abreve
ENCODING 195
SWIDTH 759 0
DWIDTH 8 0
BBX 9 11 -1 0
BITMAP
1200
0c00
0000
0800
1c00
1c00
2600
2600
7f00
4300
e780
ENDCHAR
STARTCHAR Adiaeresis
ENCODING 196
SWIDTH 759 0
DWIDTH 8 0
BBX 9 11 -1 0
BITMAP
1400
1400
0000
0800
1c00
1c00
2600
2600
7f00
4300
e780
ENDCHAR
STARTCHAR Lacute
ENCODING 197
SWIDTH 722 0
DWIDTH 7 0
BBX 6 11 0 0
BITMAP
30
60
00
f0
60
60
60
60
64
64
fc
ENDCHAR
STARTCHAR Cacute
ENCODING 198
SWIDTH 778 0
DWIDTH 8 0
BBX 7 11 0 0
BITMAP
0c
18
00
3a
46
c2
c0
c0
c2
42
3c
ENDCHAR
STARTCHAR Ccedilla
ENCODING 199
SWIDTH 778 0
DWIDTH 8 0
BBX 7 10 0 -2
BITMAP
3a
46
c2
c0
c0
c2
42
3c
10
30
ENDCHAR
STARTCHAR Ccaron
ENCODING 200
SWIDTH 778 0
DWIDTH 8 0
BBX 7 12 0 0
BITMAP
6c
38
10
00
3a
46
c2
c0
c0
c2
42
3c
ENDCHAR
STARTCHAR Eacute
ENCODING 201
SWIDTH 759 0
DWIDTH 7 0
BBX 6 11 0 0
BITMAP
0c
18
00
fc
64
68
78
68
64
64
fc
ENDCHAR
STARTCHAR Eogonek
ENCODING 202
SWIDTH 759 0
DWIDTH 7 0
BBX 6 11 0 -3
BITMAP
fc
64
68
78
68
64
64
fc
10
20
30
ENDCHAR
STARTCHAR Ediaeresis
ENCODING 203
SWIDTH 759 0
DWIDTH 7 0
BBX 6 11 0 0
BITMAP
28
28
00
fc
64
68
78
68
64
64
fc
ENDCHAR
STARTCHAR Ecaron
ENCODING 204
SWIDTH 759 0
DWIDTH 7 0
BBX 6 12 0 0
BITMAP
d8
70
20
00
fc
64
68
78
68
64
64
fc
ENDCHAR
STARTCHAR Iacute
ENCODING 205
SWIDTH 444 0
DWIDTH 5 0
BBX 4 11 0 0
BITMAP
30
60
00
f0
60
60
60
60
60
60
f0
ENDCHAR
STARTCHAR Icircumflex
ENCODING 206
SWIDTH 444 0
DWIDTH 5 0
BBX 5 11 0 0
BITMAP
70
d8
00
f0
60
60
60
60
60
60
f0
ENDCHAR
STARTCHAR Dcaron
ENCODING 207
SWIDTH 833 0
DWIDTH 9 0
BBX 8 12 0 0
BITMAP
6c
38
10
00
fc
62
63
63
63
63
62
fc
ENDCHAR
STARTCHAR Dstroke
ENCODING 208
SWIDTH 833 0
DWIDTH 9 0
BBX 8 8 0 0
BITMAP
fc
62
63
f3
63
63
62
fc
ENDCHAR
STARTCHAR Nacute
ENCODING 209
SWIDTH 833 0
DWIDTH 9 0
BBX 8 11 0 0
BITMAP
0c
18
00
c7
62
72
7a
5e
4e
46
e2
ENDCHAR
STARTCHAR Ncaron
ENCODING 210
SWIDTH 833 0
DWIDTH 9 0
BBX 8 12 0 0
BITMAP
6c
38
10
00
c7
62
72
7a
5e
4e
46
e2
ENDCHAR
STARTCHAR Oacute
ENCODING 211
SWIDTH 833 0
DWIDTH 8 0
BBX 7 11 0 0
BITMAP
0c
18
00
38
44
c6
c6
c6
c6
44
38
ENDCHAR
STARTCHAR Ocircumflex
ENCODING 212
SWIDTH 833 0
DWIDTH 8 0
BBX 7 11 0 0
BITMAP
38
6c
00
38
44
c6
c6
c6
c6
44
38
ENDCHAR
STARTCHAR Odoubleacute
ENCODING 213
SWIDTH 833 0
DWIDTH 8 0
BBX 8 11 0 0
BITMAP
33
66
00
38
44
c6
c6
c6
c6
44
38
ENDCHAR
STARTCHAR Odiaeresis
ENCODING 214
SWIDTH 833 0
DWIDTH 8 0
BBX 7 11 0 0
BITMAP
28
28
00
38
44
c6
c6
c6
c6
44
38
ENDCHAR
STARTCHAR multiply
ENCODING 215
SWIDTH 606 0
DWIDTH 6 0
BBX 6 5 0 1
BITMAP
cc
78
30
78
cc
ENDCHAR
STARTCHAR Rcaron
ENCODING 216
SWIDTH 815 0
DWIDTH 9 0
BBX 8 12 0 0
BITMAP
6c
38
10
00
fc
66
66
64
7c
66
66
f7
ENDCHAR
STARTCHAR Uring
ENCODING 217
SWIDTH 833 0
DWIDTH 9 0
BBX 8 12 0 0
BITMAP
18
24
18
00
f7
62
62
62
62
62
62
3c
ENDCHAR
STARTCHAR Uacute
ENCODING 218
SWIDTH 833 0
DWIDTH 9 0
BBX 8 11 0 0
BITMAP
06
0c
00
f7
62
62
62
62
62
62
3c
ENDCHAR
STARTCHAR Udoubleacute
ENCODING 219
SWIDTH 833 0
DWIDTH 9 0
BBX 8 11 0 0
BITMAP
33
66
00
f7
62
62
62
62
62
62
3c
ENDCHAR
STARTCHAR Udiaeresis
ENCODING 220
SWIDTH 833 0
DWIDTH 9 0
BBX 8 11 0 0
BITMAP
24
24
00
f7
62
62
62
62
62
62
3c
ENDCHAR
STARTCHAR Yacute
ENCODING 221
SWIDTH 722 0
DWIDTH 9 0
BBX 8 11 0 0
BITMAP
06
0c
00
f7
62
34
34
18
18
18
3c
ENDCHAR
STARTCHAR Tcedilla
ENCODING 222
SWIDTH 722 0
DWIDTH 7 0
BBX 6 11 0 -3
BITMAP
fc
b4
b4
30
30
30
30
78
20
10
30
ENDCHAR
STARTCHAR ssharp
ENCODING 223
SWIDTH 611 0
DWIDTH 8 0
BBX 7 8 0 0
BITMAP
3c
66
66
6c
66
66
66
ec
ENDCHAR
STARTCHAR racute
ENCODING 224
SWIDTH 519 0
DWIDTH 5 0
BBX 4 8 0 0
BITMAP
30
60
00
d0
f0
c0
c0
c0
ENDCHAR
STARTCHAR aacute
ENCODING 225
SWIDTH 611 0
DWIDTH 5 0
BBX 4 8 0 0
BITMAP
30
60
00
e0
30
70
b0
f0
ENDCHAR
STARTCHAR acircumflex
ENCODING 226
SWIDTH 611 0
DWIDTH 5 0
BBX 5 9 0 0
BITMAP
20
70
d8
00
e0
30
70
b0
f0
ENDCHAR
STARTCHAR abreve
ENCODING 227
SWIDTH 611 0
DWIDTH 5 0
BBX 4 8 0 0
BITMAP
90
60
00
e0
30
70
b0
f0
ENDCHAR
STARTCHAR adiaeresis
ENCODING 228
SWIDTH 611 0
DWIDTH 5 0
BBX 4 8 0 0
BITMAP
a0
a0
00
e0
30
70
b0
f0
ENDCHAR
STARTCHAR lacute
ENCODING 229
SWIDTH 352 0
DWIDTH 5 0
BBX 4 11 0 0
BITMAP
30
60
00
e0
60
60
60
60
60
60
f0
ENDCHAR
STARTCHAR cacute
ENCODING 230
SWIDTH 556 0
DWIDTH 6 0
BBX 5 8 0 0
BITMAP
18
30
00
70
c8
c0
c8
70
ENDCHAR
STARTCHAR ccedilla
ENCODING 231
SWIDTH 556 0
DWIDTH 6 0
BBX 5 7 0 -2
BITMAP
70
c8
c0
c8
70
20
60
ENDCHAR
STARTCHAR ccaron
ENCODING 232
SWIDTH 556 0
DWIDTH 6 0
BBX 5 9 0 0
BITMAP
d8
70
20
00
70
c8
c0
c8
70
ENDCHAR
STARTCHAR eacute
ENCODING 233
SWIDTH 574 0
DWIDTH 6 0
BBX 5 8 0 0
BITMAP
18
30
00
70
d8
f8
c0
78
ENDCHAR
STARTCHAR eogonek
ENCODING 234
SWIDTH 574 0
DWIDTH 6 0
BBX 5 8 0 -3
BITMAP
70
d8
f8
c0
78
10
20
30
ENDCHAR
STARTCHAR ediaeresis
ENCODING 235
SWIDTH 574 0
DWIDTH 6 0
BBX 5 8 0 0
BITMAP
50
50
00
70
d8
f8
c0
78
ENDCHAR
STARTCHAR ecaron
ENCODING 236
SWIDTH 574 0
DWIDTH 6 0
BBX 5 9 0 0
BITMAP
d8
70
20
00
70
d8
f8
c0
78
ENDCHAR
STARTCHAR iacute
ENCODING 237
SWIDTH 370 0
DWIDTH 5 0
BBX 4 8 0 0
BITMAP
30
60
00
e0
60
60
60
f0
ENDCHAR
STARTCHAR icircumflex
ENCODING 238
SWIDTH 370 0
DWIDTH 5 0
BBX 5 9 0 0
BITMAP
20
70
d8
00
e0
60
60
60
f0
ENDCHAR
STARTCHAR dcaron
ENCODING 239
SWIDTH 960 0
DWIDTH 10 0
BBX 9 9 0 0
BITMAP
0180
1d80
0c80
0d00
7c00
cc00
cc00
dc00
6c00
ENDCHAR
STARTCHAR dstroke
ENCODING 240
SWIDTH 864 0
DWIDTH 9 0
BBX 8 8 0 0
BITMAP
0c
3f
0c
7c
cc
cc
dc
6c
ENDCHAR
STARTCHAR nacute
ENCODING 241
SWIDTH 685 0
DWIDTH 7 0
BBX 6 8 0 0
BITMAP
18
30
00
d8
ec
cc
cc
cc
ENDCHAR
STARTCHAR ncaron
ENCODING 242
SWIDTH 685 0
DWIDTH 7 0
BBX 6 9 0 0
BITMAP
d8
70
20
00
d8
ec
cc
cc
cc
ENDCHAR
STARTCHAR oacute
ENCODING 243
SWIDTH 611 0
DWIDTH 7 0
BBX 6 8 0 0
BITMAP
30
60
00
78
cc
cc
cc
78
ENDCHAR
STARTCHAR ocircumflex
ENCODING 244
SWIDTH 611 0
DWIDTH 7 0
BBX 6 9 0 0
BITMAP
20
70
d8
00
78
cc
cc
cc
78
ENDCHAR
STARTCHAR odoubleacute
ENCODING 245
SWIDTH 611 0
DWIDTH 7 0
BBX 7 8 0 0
BITMAP
66
cc
00
78
cc
cc
cc
78
ENDCHAR
STARTCHAR odiaeresis
ENCODING 246
SWIDTH 611 0
DWIDTH 7 0
BBX 6 8 0 0
BITMAP
50
50
00
78
cc
cc
cc
78
ENDCHAR
STARTCHAR division
ENCODING 247
SWIDTH 606 0
DWIDTH 6 0
BBX 5 5 0 1
BITMAP
20
00
f8
00
20
ENDCHAR
STARTCHAR rcaron
ENCODING 248
SWIDTH 519 0
DWIDTH 5 0
BBX 5 9 -1 0
BITMAP
d8
70
20
00
68
78
60
60
60
ENDCHAR
STARTCHAR uring
ENCODING 249
SWIDTH 685 0
DWIDTH 7 0
BBX 6 9 0 0
BITMAP
30
48
30
00
cc
cc
cc
dc
6c
ENDCHAR
STARTCHAR uacute
ENCODING 250
SWIDTH 685 0
DWIDTH 7 0
BBX 6 8 0 0
BITMAP
18
30
00
cc
cc
cc
dc
6c
ENDCHAR
STARTCHAR udoubleacute
ENCODING 251
SWIDTH 685 0
DWIDTH 7 0
BBX 7 8 0 0
BITMAP
66
cc
00
cc
cc
cc
dc
6c
ENDCHAR
STARTCHAR udiaeresis
ENCODING 252
SWIDTH 685 0
DWIDTH 7 0
BBX 6 8 0 0
BITMAP
50
50
00
cc
cc
cc
dc
6c
ENDCHAR
STARTCHAR yacute
ENCODING 253
SWIDTH 611 0
DWIDTH 7 0
BBX 6 10 0 -2
BITMAP
18
30
00
ec
68
68
30
30
e0
c0
ENDCHAR
STARTCHAR tcedilla
ENCODING 254
SWIDTH 426 0
DWIDTH 4 0
BBX 4 10 -1 -3
BITMAP
20
60
f0
60
60
60
30
40
20
60
ENDCHAR
STARTCHAR abovedot
ENCODING 255
SWIDTH 333 0
DWIDTH 2 0
BBX 1 2 0 6
BITMAP
80
80
ENDCHAR
ENDFONT
